<?xml version="1.0" encoding="utf-8"?>
<!-- Generator: Adobe Illustrator 26.5.0, SVG Export Plug-In . SVG Version: 6.00 Build 0)  -->
<svg version="1.1" id="Layer_1" xmlns="http://www.w3.org/2000/svg" xmlns:xlink="http://www.w3.org/1999/xlink" x="0px" y="0px"
	 viewBox="0 0 31.9 32" style="enable-background:new 0 0 31.9 32;" xml:space="preserve">
<style type="text/css">
	.st0{fill:url(#SVGID_1_);}
	.st1{fill:#208BD3;stroke:#000000;stroke-miterlimit:10;}
	.st2{font-family:'ComicSansMS';}
	.st3{font-size:31.0541px;}
</style>
<linearGradient id="SVGID_1_" gradientUnits="userSpaceOnUse" x1="-248.2644" y1="148.6404" x2="-248.195" y2="147.7725" gradientTransform="matrix(14.6164 0 0 -26.6459 3646.5664 3961.1743)">
	<stop  offset="0" style="stop-color:#FFEA83"/>
	<stop  offset="8.333001e-02" style="stop-color:#FFDD35"/>
	<stop  offset="1" style="stop-color:#FFA800"/>
</linearGradient>
<path class="st0" d="M23.1,0L12,2.2c-0.2,0-0.3,0.2-0.3,0.4L11,14.1c0,0.2,0.2,0.4,0.4,0.4c0,0,0.1,0,0.1,0l3.1-0.7
	c0.3-0.1,0.5,0.2,0.5,0.5l-0.9,4.5c-0.1,0.3,0.2,0.6,0.5,0.5l1.9-0.6c0.3-0.1,0.6,0.2,0.5,0.5l-1.5,7.1c-0.1,0.4,0.5,0.7,0.7,0.3
	l0.2-0.3l9-18c0.2-0.3-0.1-0.6-0.4-0.6L22,8.2c-0.3,0.1-0.6-0.2-0.5-0.5l2.1-7.2C23.6,0.2,23.4-0.1,23.1,0L23.1,0z"/>
<path class="st1" d="M19.4,31.4h-6.9c-6.6,0-12-5.4-12-12v-6.9c0-6.6,5.4-12,12-12h6.9c6.6,0,12,5.4,12,12v6.9
	C31.4,26,26,31.4,19.4,31.4z"/>
<text transform="matrix(1 0 0 1 3.5015 28.8665)" class="st2 st3">T</text>
</svg>
